<svg xmlns="http://www.w3.org/2000/svg" version="1.1" xmlns:xlink="http://www.w3.org/1999/xlink" xmlns:svgjs="http://svgjs.dev/svgjs" width="2000" height="1500" viewBox="0 0 2000 1500"><rect width="2000" height="1500" fill="#ffffff"></rect><g transform="matrix(0.75,0,0,0.75,249.0909401693881,305.2917400601043)"><svg viewBox="0 0 396 235" data-background-color="#ffffff" preserveAspectRatio="xMidYMid meet" height="1186" width="2000" xmlns="http://www.w3.org/2000/svg" xmlns:xlink="http://www.w3.org/1999/xlink"><g id="tight-bounds" transform="matrix(1,0,0,1,0.2399918410667965,-0.011027447020239833)"><svg viewBox="0 0 395.52 235.02205489404048" height="235.02205489404048" width="395.52"><g><svg viewBox="0 0 395.52 235.02205489404048" height="235.02205489404048" width="395.52"><g transform="matrix(1,0,0,1,0,189.89657850127438)"><svg viewBox="0 0 395.52 45.1254763927661" height="45.1254763927661" width="395.52"><g id="textblocktransform"><svg viewBox="0 0 395.52 45.1254763927661" height="45.1254763927661" width="395.52" id="textblock"><g><svg viewBox="0 0 395.52 45.1254763927661" height="45.1254763927661" width="395.52"><g transform="matrix(1,0,0,1,0,0)"><svg width="395.52" viewBox="1.4500000476837158 -37.599998474121094 411.91998291015625 47" height="45.1254763927661" data-palette-color="#883d1a"><path d="M18.95 0.55Q10.45 0.55 5.95-4.53 1.45-9.6 1.45-18.4L1.45-18.4Q1.45-24.2 3.83-28.53 6.2-32.85 10.35-35.2 14.5-37.55 19.75-37.55L19.75-37.55Q21.95-37.55 24-37.27 26.05-37 28.85-36.55L28.85-36.55Q30.95-36.2 31.15-36.2L31.15-36.2 30.6-25.9 26-25.9 24.45-33.05Q23.9-33.6 22.55-33.95 21.2-34.3 19.1-34.3L19.1-34.3Q14.85-34.3 12.28-30.38 9.7-26.45 9.7-19L9.7-19Q9.7-11.8 12.15-7.25 14.6-2.7 19.3-2.7L19.3-2.7Q21.55-2.7 22.78-3.13 24-3.55 24.85-4.35L24.85-4.35 27.05-9.5 31.25-9.1 30.25-1.35Q29.2-1.25 28.18-0.98 27.15-0.7 26.9-0.65L26.9-0.65Q24.9-0.1 23.18 0.23 21.45 0.55 18.95 0.55L18.95 0.55ZM50.65 0.55Q42.5 0.55 38.45-4.55 34.4-9.65 34.4-18.45L34.4-18.45Q34.4-24.2 36.52-28.55 38.65-32.9 42.5-35.25 46.35-37.6 51.35-37.6L51.35-37.6Q59.6-37.6 63.72-32.73 67.85-27.85 67.85-19.1L67.85-19.1Q67.85-13.3 65.67-8.83 63.5-4.35 59.6-1.9 55.7 0.55 50.65 0.55L50.65 0.55ZM51.15-34.55Q47.05-34.55 44.75-30.5 42.45-26.45 42.45-18.5L42.45-18.5Q42.45-10.65 44.67-6.58 46.9-2.5 51.05-2.5L51.05-2.5Q55.1-2.5 57.4-6.78 59.7-11.05 59.7-19.1L59.7-19.1Q59.7-26.9 57.5-30.73 55.3-34.55 51.15-34.55L51.15-34.55ZM75.2-3.5L75.2-33.4 71.45-34.05 71.45-37.15 78.75-37.15Q80.4-37.15 83.2-37.35L83.2-37.35Q83.84-37.4 85.17-37.45 86.5-37.5 87.55-37.5L87.55-37.5Q96.75-37.5 101.32-32.9 105.9-28.3 105.9-19.85L105.9-19.85Q105.9-13.95 103.62-9.35 101.34-4.75 97.15-2.18 92.95 0.4 87.34 0.4L87.34 0.4Q85.9 0.4 82.8 0.2L82.8 0.2Q79.9 0 78.84 0L78.84 0 71.25 0 71.25-3 75.2-3.5ZM82.45-3.35Q84.15-2.9 87.2-2.9L87.2-2.9Q92.2-3 95.05-6.93 97.9-10.85 97.9-18.7L97.9-18.7Q97.9-26.15 95.09-30.23 92.3-34.3 86.4-34.3L86.4-34.3Q85.15-34.3 84.02-34.15 82.9-34 82.45-33.95L82.45-33.95 82.45-3.35ZM113.24-3.5L113.24-33.4 109.24-34.05 109.24-37.15 135.89-37.15 136.54-28.75 133.04-28.75 131.39-33.7 120.59-34.15 120.59-20.7 127.54-20.85 128.34-24.95 131.54-24.95 131.54-12.85 128.34-12.85 127.54-17.15 120.59-17.3 120.59-3.2 132.69-3.8 135.59-10.2 139.34-9.15 138.04 0 109.29 0 109.29-3 113.24-3.5ZM151.29 6.8Q153.29 6.15 155.01 4.5 156.74 2.85 157.54 0.35L157.54 0.35Q158.09-1.35 158.34-3.73 158.59-6.1 158.59-10.4L158.59-10.4 158.59-33.35 154.09-34.05 154.09-37.15 170.09-37.15 170.09-34.05 165.89-33.4 165.89-13.75Q165.89-8.4 165.76-5.48 165.64-2.55 165.24-0.8L165.24-0.8Q164.19 3.25 160.94 5.93 157.69 8.6 152.94 9.4L152.94 9.4 151.29 6.8ZM190.74 0.4Q183.14 0.4 179.44-3.4 175.74-7.2 175.74-15.35L175.74-15.35 175.74-33.4 172.44-34.05 172.44-37.15 187.54-37.15 187.54-34.05 183.29-33.35 183.29-14.7Q183.29-2.8 191.74-2.8L191.74-2.8Q195.89-2.8 197.89-5.88 199.89-8.95 199.89-14.5L199.89-14.5 199.89-33.35 195.59-34.05 195.59-37.15 208.09-37.15 208.09-34.05 204.69-33.4 204.69-14.9Q204.69-7.1 200.91-3.35 197.14 0.4 190.74 0.4L190.74 0.4ZM214.58-3.5L214.58-33.4 210.63-34.05 210.63-37.15 221.98-37.15 236.88-14.65 239.68-8.95 239.68-33.4 235.38-34.05 235.38-37.15 247.78-37.15 247.78-34.05 243.93-33.4 243.93 0 237.88 0 222.33-23.65 218.83-30.25 218.83-3.5 223.88-3 223.88 0 210.63 0 210.63-3 214.58-3.5ZM267.73 0.55Q259.23 0.55 254.73-4.53 250.23-9.6 250.23-18.4L250.23-18.4Q250.23-24.2 252.61-28.53 254.98-32.85 259.13-35.2 263.28-37.55 268.53-37.55L268.53-37.55Q270.73-37.55 272.78-37.27 274.83-37 277.63-36.55L277.63-36.55Q279.73-36.2 279.93-36.2L279.93-36.2 279.38-25.9 274.78-25.9 273.23-33.05Q272.68-33.6 271.33-33.95 269.98-34.3 267.88-34.3L267.88-34.3Q263.63-34.3 261.06-30.38 258.48-26.45 258.48-19L258.48-19Q258.48-11.8 260.93-7.25 263.38-2.7 268.08-2.7L268.08-2.7Q270.33-2.7 271.56-3.13 272.78-3.55 273.63-4.35L273.63-4.35 275.83-9.5 280.03-9.1 279.03-1.35Q277.98-1.25 276.96-0.98 275.93-0.7 275.68-0.65L275.68-0.65Q273.68-0.1 271.96 0.23 270.23 0.55 267.73 0.55L267.73 0.55ZM295.78-3.5L295.78-33.85 288.63-33.6 286.68-22.7 282.48-22.7 283.33-37.15 315.58-37.15 316.18-22.7 312.23-22.7 310.28-33.6 303.23-33.85 303.23-3.5 310.23-3 310.23 0 289.38 0 289.38-3 295.78-3.5ZM323.83-3.5L323.83-33.4 319.58-34.05 319.58-37.15 335.58-37.15 335.58-34.05 331.18-33.4 331.18-3.5 335.58-2.95 335.58 0 319.58 0 319.58-3 323.83-3.5ZM355.57 0.55Q347.42 0.55 343.37-4.55 339.32-9.65 339.32-18.45L339.32-18.45Q339.32-24.2 341.45-28.55 343.57-32.9 347.42-35.25 351.27-37.6 356.27-37.6L356.27-37.6Q364.52-37.6 368.65-32.73 372.77-27.85 372.77-19.1L372.77-19.1Q372.77-13.3 370.6-8.83 368.42-4.35 364.52-1.9 360.62 0.55 355.57 0.55L355.57 0.55ZM356.07-34.55Q351.97-34.55 349.67-30.5 347.37-26.45 347.37-18.5L347.37-18.5Q347.37-10.65 349.6-6.58 351.82-2.5 355.97-2.5L355.97-2.5Q360.02-2.5 362.32-6.78 364.62-11.05 364.62-19.1L364.62-19.1Q364.62-26.9 362.42-30.73 360.22-34.55 356.07-34.55L356.07-34.55ZM380.17-3.5L380.17-33.4 376.22-34.05 376.22-37.15 387.57-37.15 402.47-14.65 405.27-8.95 405.27-33.4 400.97-34.05 400.97-37.15 413.37-37.15 413.37-34.05 409.52-33.4 409.52 0 403.47 0 387.92-23.65 384.42-30.25 384.42-3.5 389.47-3 389.47 0 376.22 0 376.22-3 380.17-3.5Z" opacity="1" transform="matrix(1,0,0,1,0,0)" fill="#000000" class="undefined-text-0" data-fill-palette-color="primary" id="text-0"></path></svg></g></svg></g></svg></g></svg></g><g transform="matrix(1,0,0,1,116.12801320548611,0)"><svg viewBox="0 0 163.26397358902776 163.26397358902776" height="163.26397358902776" width="163.26397358902776"><g><svg viewBox="0 0 163.26397358902776 163.26397358902776" height="163.26397358902776" width="163.26397358902776"><g transform="matrix(1,0,0,1,43.91993293074799,43.15029917842624)"><svg viewBox="0 0 75.42410772753178 76.96337523217528" height="76.96337523217528" width="75.42410772753178"><g><svg xmlns="http://www.w3.org/2000/svg" xmlns:xlink="http://www.w3.org/1999/xlink" version="1.1" x="0" y="0" viewBox="0 0 98 100" enable-background="new 0 0 100 100" xml:space="preserve" height="76.96337523217528" width="75.42410772753178" class="icon-s-0" data-fill-palette-color="accent" id="s-0"><g fill="#4d331f" data-fill-palette-color="accent"><circle cx="49.494" cy="6.603" r="2.1" fill="#000000" data-fill-palette-color="accent"></circle><path d="M18.267 34.851l6.123-7.465c0.518-0.63 0.425-1.56-0.204-2.076-0.629-0.517-1.56-0.424-2.076 0.204l-6.972 8.499c-0.481 0.586-0.439 1.443 0.098 1.979l7.593 7.591c0.288 0.289 0.665 0.433 1.042 0.433 0.378 0 0.755-0.144 1.043-0.433 0.576-0.576 0.576-1.51 0-2.086L18.267 34.851z" fill="#000000" data-fill-palette-color="accent"></path><path d="M44.093 32.998L36.5 25.406c-0.576-0.576-1.509-0.576-2.086 0-0.576 0.577-0.576 1.511 0 2.087l6.647 6.646-6.123 7.465c-0.516 0.63-0.424 1.56 0.206 2.077 0.274 0.225 0.605 0.334 0.935 0.334 0.427 0 0.851-0.185 1.142-0.54l6.97-8.499C44.671 34.39 44.63 33.534 44.093 32.998z" fill="#000000" data-fill-palette-color="accent"></path><path d="M88.568 0H9.432C4.491 0 0 4.02 0 8.96v55.608C0 69.51 4.491 74 9.432 74h31.279c0.159 2 0.311 8.268-0.323 10.369-1.163 1.729-13.49 5.365-24.164 7.854C15.56 92.379 15 92.854 15 93.537v4.992c0 0.813 0.835 1.471 1.647 1.471h64.707C82.166 100 83 99.342 83 98.529v-4.992c0-0.684-0.559-1.277-1.225-1.434-10.732-2.486-23.082-6.008-24.202-7.625C56.896 82.277 56.925 76 57.039 74h31.529C93.508 74 98 69.51 98 64.568V8.96C98 4.02 93.508 0 88.568 0zM80 94.703V97H18v-2.298c11-2.638 24.097-6.121 25.095-9.362C43.963 82.512 43.796 76 43.657 74h10.438c-0.104 2-0.188 8.514 0.682 11.343C55.773 88.583 69 92.064 80 94.703zM95 64.98c0 3.326-3.695 6.02-7.02 6.02H9.02C5.695 71 3 68.307 3 64.98V9.019C3 5.695 5.695 3 9.02 3h78.96C91.305 3 95 5.695 95 9.019V64.98z" fill="#000000" data-fill-palette-color="accent"></path><path d="M88.529 12H9.471C8.659 12 8 12.659 8 13.471v44.058C8 58.342 8.659 59 9.471 59h79.058C89.342 59 90 58.342 90 57.529V13.471C90 12.659 89.342 12 88.529 12zM11 15h37v41H11V15zM87 56H51V15h36V56z" fill="#000000" data-fill-palette-color="accent"></path><path d="M54.5 36h29c0.828 0 1.5-0.671 1.5-1.5v-16c0-0.829-0.672-1.5-1.5-1.5h-29c-0.828 0-1.5 0.671-1.5 1.5v16C53 35.329 53.672 36 54.5 36zM56 20h26v13H56V20z" fill="#000000" data-fill-palette-color="accent"></path><path d="M83 39H55c-0.828 0-1.5 0.671-1.5 1.5S54.172 42 55 42h28c0.828 0 1.5-0.671 1.5-1.5S83.828 39 83 39z" fill="#000000" data-fill-palette-color="accent"></path><path d="M83 45H55c-0.828 0-1.5 0.671-1.5 1.5S54.172 48 55 48h28c0.828 0 1.5-0.671 1.5-1.5S83.828 45 83 45z" fill="#000000" data-fill-palette-color="accent"></path><path d="M83 51H55c-0.828 0-1.5 0.672-1.5 1.5S54.172 54 55 54h28c0.828 0 1.5-0.672 1.5-1.5S83.828 51 83 51z" fill="#000000" data-fill-palette-color="accent"></path></g></svg></g></svg></g><g><path d="M6.445 110.876C5.796 108.975 5.868 107.326 6.664 105.929 7.459 104.532 8.842 103.497 10.812 102.823V102.823C12.109 102.38 13.333 102.257 14.483 102.454 15.636 102.658 16.635 103.132 17.48 103.877 18.321 104.63 18.943 105.596 19.345 106.773V106.773C19.513 107.264 19.644 107.75 19.738 108.231 19.838 108.71 19.946 109.282 20.06 109.946V109.946C20.138 110.44 20.184 110.709 20.199 110.753V110.753L16.681 111.755 16.152 110.206 18.373 108.867C18.456 108.698 18.483 108.449 18.456 108.121 18.434 107.791 18.344 107.393 18.185 106.927V106.927C17.858 105.97 17.155 105.356 16.078 105.084 14.999 104.806 13.625 104.952 11.956 105.522V105.522C10.345 106.073 9.122 106.797 8.29 107.693 7.459 108.596 7.223 109.573 7.583 110.624V110.624C7.755 111.128 7.935 111.499 8.122 111.738 8.311 111.982 8.529 112.168 8.776 112.294V112.294L10.759 112.45 11.108 113.902 8.385 114.453C8.28 114.229 8.161 114.013 8.027 113.806 7.884 113.594 7.797 113.462 7.765 113.41V113.41C7.493 113.004 7.253 112.622 7.046 112.263 6.837 111.899 6.637 111.436 6.445 110.876ZM13.661 125.658C12.655 124.012 12.416 122.461 12.946 121.006 13.473 119.561 14.628 118.293 16.411 117.203V117.203C17.569 116.495 18.719 116.087 19.863 115.981 21.007 115.874 22.052 116.065 22.999 116.555 23.951 117.041 24.736 117.789 25.354 118.8V118.8C26.371 120.463 26.644 122.012 26.172 123.447 25.695 124.885 24.573 126.144 22.808 127.224V127.224C21.633 127.942 20.459 128.356 19.285 128.465 18.116 128.58 17.043 128.394 16.066 127.907 15.084 127.424 14.283 126.674 13.661 125.658ZM24.384 119.299C23.881 118.476 23.078 118.082 21.976 118.116 20.874 118.15 19.52 118.659 17.914 119.641V119.641C16.33 120.61 15.264 121.57 14.715 122.522 14.166 123.473 14.148 124.369 14.662 125.209V125.209C15.162 126.027 15.986 126.404 17.133 126.342 18.281 126.28 19.669 125.751 21.298 124.755V124.755C22.87 123.793 23.905 122.852 24.403 121.931 24.904 121.017 24.898 120.139 24.384 119.299ZM22.974 135.885L30.529 128.423 29.76 127.317 30.541 126.546 32.357 128.385C32.633 128.664 33.021 129.024 33.522 129.465V129.465C33.639 129.564 33.812 129.721 34.041 129.934 34.266 130.152 34.465 130.348 34.638 130.523V130.523C36.171 132.076 36.933 133.619 36.923 135.153 36.904 136.687 36.183 138.157 34.758 139.564V139.564C33.763 140.546 32.691 141.226 31.541 141.605 30.39 141.993 29.247 142.047 28.11 141.767 26.983 141.487 25.951 140.874 25.016 139.927V139.927C24.778 139.686 24.416 139.286 23.93 138.728V138.728C23.481 138.207 23.171 137.859 22.998 137.684V137.684L21.097 135.76 21.857 135.01ZM24.74 137.759C24.945 138.118 25.302 138.555 25.812 139.071V139.071C26.663 139.895 27.654 140.221 28.784 140.049 29.924 139.878 31.154 139.14 32.475 137.835V137.835C33.734 136.592 34.473 135.394 34.692 134.243 34.911 133.091 34.532 132.021 33.555 131.032V131.032C33.344 130.819 33.131 130.631 32.916 130.47 32.705 130.304 32.558 130.188 32.473 130.122V130.122ZM36.719 148.112L42.421 139.154 41.349 138.2 41.938 137.274 49.92 142.354 48.511 144.995 47.467 144.33 47.913 142.532 44.766 140.34 42.204 144.364 44.311 145.646 45.329 144.567 46.289 145.178 43.979 148.806 43.019 148.195 43.603 146.757 41.556 145.383 38.866 149.609 42.598 151.737 44.687 150.369 45.617 151.399 43.474 153.892 34.862 148.409 35.435 147.508ZM56.04 161.922C56.536 161.902 57.032 161.757 57.529 161.488 58.032 161.221 58.453 160.827 58.791 160.307V160.307C59.027 159.958 59.249 159.519 59.459 158.991 59.667 158.469 59.908 157.717 60.182 156.737V156.737L62.375 148.883 60.904 148.213 61.199 147.156 66.668 148.683 66.373 149.741 64.87 149.559 62.991 156.288C62.651 157.506 62.375 158.444 62.163 159.103 61.952 159.763 61.741 160.281 61.532 160.658V160.658C61.038 161.514 60.334 162.143 59.42 162.544 58.513 162.948 57.492 163.091 56.358 162.974V162.974ZM75.357 163.199C73.567 163.048 72.272 162.487 71.473 161.518 70.674 160.548 70.356 159.102 70.519 157.18V157.18L71.061 150.785 69.917 150.458 70.01 149.364 75.35 149.817 75.258 150.911 73.735 151.032 73.175 157.636C72.937 160.44 73.815 161.927 75.811 162.096V162.096C76.785 162.179 77.539 161.879 78.071 161.196 78.609 160.514 78.934 159.517 79.046 158.204V158.204L79.612 151.531 78.112 151.153 78.204 150.059 82.62 150.434 82.527 151.528 81.304 151.655 80.748 158.208C80.592 160.045 80.033 161.369 79.069 162.182 78.106 162.989 76.868 163.328 75.357 163.199ZM88.875 161.82L87.29 151.32 85.864 151.303 85.7 150.218 89.687 149.616 96.111 156.731 97.4 158.585 96.102 149.99 94.558 149.991 94.394 148.905 98.746 148.248 98.91 149.334 97.592 149.765 99.364 161.499 97.242 161.819 90.53 154.334 88.948 152.211 90.365 161.595 92.168 161.505 92.327 162.561 87.669 163.264 87.51 162.208ZM112.409 157.415C110.541 158.157 108.89 158.164 107.457 157.438 106.023 156.711 104.922 155.38 104.153 153.445V153.445C103.647 152.171 103.465 150.955 103.607 149.796 103.754 148.635 104.179 147.614 104.882 146.734 105.594 145.857 106.527 145.189 107.684 144.73V144.73C108.166 144.539 108.645 144.384 109.121 144.267 109.595 144.143 110.161 144.008 110.818 143.862V143.862C111.308 143.761 111.574 143.701 111.617 143.684V143.684L112.789 147.149 111.268 147.753 109.822 145.6C109.649 145.525 109.4 145.509 109.074 145.553 108.745 145.591 108.352 145.7 107.894 145.882V145.882C106.954 146.255 106.375 146.986 106.156 148.075 105.93 149.167 106.143 150.532 106.794 152.171V152.171C107.422 153.754 108.204 154.94 109.14 155.728 110.082 156.514 111.069 156.702 112.102 156.292V156.292C112.597 156.095 112.959 155.898 113.188 155.699 113.423 155.499 113.598 155.272 113.712 155.019V155.019L113.771 153.03 115.205 152.611 115.887 155.304C115.668 155.42 115.458 155.55 115.258 155.694 115.054 155.846 114.926 155.94 114.875 155.974V155.974C114.483 156.266 114.113 156.524 113.765 156.748 113.411 156.974 112.959 157.197 112.409 157.415ZM124.936 149.021L118.868 140.112 116.815 141.619 118.426 145.207 117.189 146.05 114.557 141.636 124.018 135.192 127.087 139.308 125.924 140.1 123.175 137.287 121.054 138.623 127.122 147.532 129.277 146.281 129.878 147.164 123.757 151.333 123.156 150.45ZM136.489 139.92L129.022 132.37 127.789 133.267 127.017 132.486 131.055 128.493 131.827 129.273 130.881 130.531 138.348 138.082 139.596 137.129 140.332 137.874 136.295 141.867 135.544 141.108ZM147.837 128.272C146.753 129.867 145.438 130.724 143.894 130.841 142.36 130.956 140.729 130.427 139.001 129.252V129.252C137.878 128.489 137.033 127.608 136.464 126.61 135.896 125.612 135.639 124.581 135.695 123.517 135.745 122.449 136.103 121.425 136.769 120.446V120.446C137.865 118.834 139.164 117.947 140.666 117.785 142.173 117.627 143.782 118.129 145.494 119.293V119.293C146.633 120.067 147.494 120.966 148.077 121.99 148.664 123.009 148.937 124.063 148.895 125.153 148.86 126.247 148.507 127.287 147.837 128.272ZM137.624 121.123C137.082 121.921 137.053 122.815 137.539 123.805 138.024 124.795 139.046 125.819 140.603 126.878V126.878C142.138 127.921 143.452 128.497 144.546 128.605 145.639 128.712 146.463 128.359 147.016 127.545V127.545C147.555 126.752 147.559 125.846 147.03 124.826 146.5 123.807 145.446 122.76 143.867 121.686V121.686C142.342 120.65 141.058 120.095 140.015 120.021 138.974 119.942 138.178 120.309 137.624 121.123ZM153.32 115.529L143.385 111.778 142.673 113.014 141.646 112.626 143.071 108.854 152.418 106.729 154.666 106.511 146.533 103.44 145.779 104.788 144.752 104.4 146.307 100.282 147.334 100.67 147.065 102.03 158.167 106.222 157.409 108.229 147.598 110.424 144.973 110.767 153.852 114.119 154.655 112.502 155.654 112.879 153.99 117.286 152.991 116.909Z" fill="#000000" data-fill-palette-color="accent"></path><path d="M16.071 59.283C15.429 61.166 14.378 62.414 12.918 63.027 11.451 63.638 9.745 63.611 7.799 62.948V62.948C6.514 62.51 5.482 61.866 4.703 61.017 3.926 60.162 3.433 59.186 3.224 58.088 3.021 56.992 3.117 55.865 3.512 54.707V54.707C3.679 54.215 3.869 53.753 4.08 53.319 4.298 52.887 4.562 52.379 4.873 51.796V51.796C5.107 51.356 5.232 51.114 5.247 51.07V51.07L8.606 52.415 8.084 53.945 5.539 53.647C5.376 53.732 5.204 53.909 5.021 54.177 4.842 54.454 4.675 54.822 4.518 55.281V55.281C4.196 56.226 4.373 57.13 5.049 57.993 5.722 58.862 6.884 59.578 8.534 60.141V60.141C10.128 60.684 11.52 60.856 12.713 60.658 13.905 60.46 14.679 59.838 15.036 58.793V58.793C15.205 58.295 15.289 57.895 15.287 57.592 15.285 57.289 15.228 57.013 15.116 56.764V56.764L13.654 55.454 14.263 54.101 16.729 55.311C16.668 55.55 16.631 55.794 16.617 56.042 16.596 56.288 16.582 56.442 16.576 56.503V56.503C16.543 56.991 16.5 57.436 16.447 57.84 16.385 58.248 16.26 58.729 16.071 59.283ZM22.325 46.51C21.333 48.134 20.082 49.042 18.569 49.234 17.061 49.42 15.426 48.975 13.665 47.901V47.901C12.518 47.201 11.638 46.375 11.026 45.425 10.417 44.469 10.115 43.462 10.121 42.406 10.117 41.351 10.421 40.324 11.031 39.325V39.325C12.036 37.678 13.275 36.739 14.749 36.508 16.228 36.28 17.84 36.699 19.584 37.763V37.763C20.742 38.47 21.637 39.316 22.267 40.301 22.895 41.277 23.216 42.303 23.23 43.379 23.243 44.455 22.942 45.499 22.325 46.51ZM11.906 39.94C11.403 40.764 11.419 41.651 11.954 42.601 12.48 43.553 13.538 44.514 15.128 45.485V45.485C16.696 46.442 18.021 46.946 19.103 46.999 20.186 47.051 20.98 46.663 21.486 45.834V45.834C21.982 45.022 21.942 44.129 21.368 43.154 20.796 42.174 19.704 41.192 18.091 40.208V40.208C16.535 39.258 15.243 38.77 14.215 38.743 13.182 38.712 12.412 39.111 11.906 39.941ZM28.175 36.079L20.704 28.716 19.623 29.486 18.848 28.723 20.642 26.903C20.912 26.628 21.262 26.24 21.692 25.738V25.738C21.79 25.62 21.941 25.447 22.147 25.219 22.361 24.992 22.555 24.791 22.728 24.615V24.615C24.237 23.085 25.748 22.314 27.263 22.303 28.783 22.297 30.246 22.987 31.654 24.374V24.374C32.639 25.346 33.327 26.397 33.716 27.528 34.11 28.664 34.177 29.795 33.917 30.921 33.653 32.043 33.062 33.068 32.147 33.997V33.997C31.909 34.239 31.519 34.601 30.976 35.085V35.085C30.467 35.536 30.126 35.849 29.953 36.024V36.024L28.082 37.922 27.336 37.186ZM29.997 34.302C30.353 34.092 30.781 33.734 31.28 33.227V33.227C32.088 32.379 32.399 31.396 32.212 30.277 32.03 29.154 31.285 27.948 29.977 26.659V26.659C28.735 25.435 27.542 24.722 26.397 24.518 25.262 24.315 24.208 24.706 23.237 25.691V25.691C23.031 25.9 22.849 26.108 22.691 26.316 22.533 26.534 22.418 26.683 22.348 26.764V26.764ZM40.624 24.889L34.981 16.047 33.68 16.605 33.095 15.688 40.978 10.657 42.755 13.016 41.721 13.676 40.298 12.524 37.015 14.429 39.555 18.409 41.581 17.057 41.043 15.695 41.994 15.088 44.276 18.664 43.325 19.271 42.279 18.15 40.199 19.418 42.856 23.583 46.319 21.125 45.97 18.684 47.279 18.287 48.62 21.243 40.123 26.665 39.559 25.782ZM60.05 18.917C60.457 18.645 60.805 18.268 61.092 17.787 61.38 17.307 61.535 16.759 61.557 16.145V16.145C61.573 15.733 61.535 15.25 61.443 14.696 61.353 14.148 61.172 13.386 60.9 12.412V12.412L58.74 4.653 57.156 4.846 56.864 3.798 62.268 2.293 62.56 3.341 61.198 3.958 63.048 10.602C63.384 11.807 63.631 12.743 63.789 13.41 63.946 14.071 64.034 14.613 64.055 15.035V15.035C64.072 16.011 63.795 16.903 63.226 17.711 62.663 18.517 61.871 19.159 60.851 19.637V19.637ZM76.276 13.636C74.506 13.784 73.152 13.45 72.216 12.634 71.273 11.825 70.723 10.469 70.563 8.566V8.566L70.035 2.261 68.862 2.128 68.772 1.044 74.053 0.602 74.143 1.686 72.682 2.049 73.228 8.573C73.461 11.351 74.561 12.658 76.531 12.493V12.493C77.499 12.412 78.185 11.991 78.588 11.229 78.992 10.474 79.14 9.45 79.032 8.157V8.157L78.48 1.563 76.958 1.451 76.867 0.366 81.243 0 81.334 1.084 80.16 1.413 80.701 7.877C80.853 9.694 80.528 11.077 79.726 12.025 78.918 12.974 77.768 13.511 76.276 13.636ZM87.887 12.231L89.462 1.86 88.124 1.425 88.288 0.35 92.225 0.947 96.21 9.537 96.888 11.659 98.174 3.183 96.709 2.728 96.872 1.653 101.174 2.306 101.011 3.381 99.645 3.406 97.886 14.99 95.784 14.671 91.642 5.654 90.777 3.171 89.367 12.456 91.087 12.898 90.93 13.934 86.332 13.236 86.489 12.2ZM108.676 18.866C106.827 18.131 105.634 17.018 105.095 15.529 104.558 14.034 104.67 12.331 105.43 10.421V10.421C105.932 9.16 106.626 8.162 107.513 7.426 108.407 6.693 109.407 6.249 110.513 6.096 111.618 5.948 112.739 6.1 113.876 6.553V6.553C114.358 6.745 114.811 6.957 115.234 7.19 115.654 7.429 116.148 7.718 116.714 8.058V8.058C117.142 8.314 117.378 8.451 117.421 8.468V8.468L115.909 11.755 114.407 11.157 114.832 8.63C114.755 8.464 114.588 8.282 114.329 8.086 114.062 7.894 113.703 7.708 113.251 7.529V7.529C112.324 7.16 111.412 7.291 110.517 7.923 109.615 8.552 108.841 9.677 108.197 11.296V11.296C107.575 12.86 107.332 14.243 107.47 15.444 107.609 16.644 108.191 17.449 109.217 17.857V17.857C109.705 18.051 110.101 18.155 110.404 18.168 110.706 18.181 110.985 18.138 111.239 18.039V18.039L112.621 16.644 113.942 17.32 112.61 19.723C112.374 19.65 112.132 19.601 111.885 19.574 111.64 19.541 111.488 19.52 111.427 19.51V19.51C110.942 19.453 110.498 19.387 110.098 19.314 109.694 19.232 109.22 19.083 108.676 18.866ZM120.859 23.863L126.859 15.066 124.731 13.723 122.016 16.498 120.796 15.666 123.9 11.646 133.25 18.023 130.567 22.33 129.421 21.548 131.014 18.008 129.02 16.539 123.019 25.337 124.946 26.869 124.356 27.734 118.312 23.612 118.903 22.747ZM131.391 32.146L138.775 24.696 137.88 23.486 138.646 22.713 142.63 26.662 141.864 27.435 140.611 26.516 133.226 33.965 134.184 35.182 133.454 35.919 129.47 31.971 130.208 31.226ZM139.455 44.327C138.388 42.751 138.08 41.236 138.532 39.78 138.988 38.33 140.069 37.026 141.777 35.869V35.869C142.889 35.115 144.005 34.656 145.124 34.492 146.247 34.334 147.288 34.477 148.247 34.92 149.208 35.353 150.017 36.055 150.674 37.024V37.024C151.757 38.621 152.098 40.139 151.697 41.576 151.291 43.016 150.243 44.31 148.552 45.456V45.456C147.428 46.217 146.288 46.681 145.13 46.846 143.982 47.014 142.915 46.881 141.93 46.447 140.945 46.014 140.12 45.307 139.455 44.327ZM149.751 37.566C149.21 36.767 148.396 36.414 147.31 36.507 146.225 36.591 144.912 37.156 143.37 38.201V38.201C141.85 39.232 140.841 40.228 140.345 41.192 139.849 42.155 139.873 43.039 140.418 43.843V43.843C140.952 44.631 141.781 44.965 142.906 44.846 144.034 44.732 145.381 44.145 146.945 43.085V43.085C148.454 42.062 149.434 41.088 149.884 40.164 150.34 39.236 150.296 38.37 149.751 37.566ZM146.514 53.975L156.331 50.283 156.058 48.903 157.076 48.52 158.478 52.247 152.93 59.922 151.41 61.549 159.434 58.531 159.115 57.03 160.133 56.647 161.665 60.72 160.647 61.103 159.958 59.923 148.991 64.048 148.242 62.058 154.087 54.038 155.831 52.07 147.041 55.377 147.495 57.093 146.514 57.462 144.876 53.109 145.857 52.74Z" fill="#000000" data-fill-palette-color="accent"></path><path d="M1.599 83.395C1.599 80.611 3.856 78.354 6.639 78.354 9.423 78.354 11.679 80.611 11.679 83.395 11.679 86.178 9.423 88.435 6.639 88.435 3.855 88.435 1.599 86.178 1.599 83.395ZM151.507 83.395C151.507 80.611 153.764 78.354 156.547 78.354 159.331 78.354 161.587 80.611 161.587 83.395 161.587 86.178 159.331 88.435 156.547 88.435 153.764 88.435 151.507 86.178 151.507 83.395Z" fill="#000000" data-fill-palette-color="accent"></path></g></svg></g></svg></g><g></g></svg></g><defs></defs></svg><rect width="395.52" height="235.02205489404048" fill="none" stroke="none" visibility="hidden"></rect></g></svg></g></svg>